<?xml version="1.0" encoding="UTF-8"?>
<svg version="1.1" viewBox="0 0 2048 2048" width="128" height="128" xmlns="http://www.w3.org/2000/svg">
<path transform="translate(1028,1055)" d="m0 0h60l37 4 36 6 25 6 27 8 29 11 23 11 23 13 20 13 17 12 16 12 14 12 8 7 11 10 8 7 32 32 9 11 11 13 11 16 14 22 14 24 17 34 10 25 12 41 6 25 5 33 3 30 1 17v53l-2 26-4 30-4 23-6 24-12 39-10 24-8 19-10 19-15 26-11 16-13 18-14 17-9 11-11 11-1 2h-2v2l-8 7-12 12-8 7-14 12-20 15-18 13-18 12-24 14-27 13-38 15-25 8-24 6-21 4-22 3-44 3-20 1h-18l-28-2-30-4-30-7-48-14-28-11-13-5-22-12-19-11-24-16-12-9-16-13-11-10-8-7-12-11-29-29-9-11-11-13-13-18-16-24-14-24-10-19-11-25-9-24-5-15-14-56-4-25-2-26v-93l4-27 14-62 7-24 10-24 9-20 10-19 12-21 13-19 10-13 14-19 9-12 9-11 11-12 10-10 8-7 10-9 14-12 11-9 12-10 17-12 19-12 26-15 25-12 23-9 24-8 24-6 31-6 30-4z"/>
<path transform="translate(1610,33)" d="m0 0h53l43 3 39 4 30 5 34 9 50 16 17 7 18 10 37 25 14 10 10 9 9 10 9 15 5 10 4 15 1 6v29l-2 11-8 16-10 15-9 11-10 9-10 7-18 12-20 13-21 11-24 9-38 12-28 8-34 7-31 4-46 4-17 1h-59l-62-5-29-3-26-6-37-11-48-16-18-8-18-11-24-16-11-8-13-11-8-8-10-14-8-16-4-10-2-8-1-19 3-18 6-18 10-19 9-11 7-7 11-8 16-10 20-14 19-11 17-8 31-10 33-10 32-8 27-4 31-3z"/>
<path transform="translate(360,33)" d="m0 0h57l43 3 39 4 29 5 30 8 47 15 20 8 19 10 33 22 16 11 10 8 10 10 10 14 7 14 3 9 2 12v28l-4 17-10 18-9 13-11 12-14 11-29 19-15 9-21 10-25 9-29 9-31 9-34 7-31 4-47 4-44 2h-16l-26-1-53-5-27-3-25-6-31-9-55-18-21-10-19-12-28-19-11-9-11-10-8-10-10-17-5-12-2-8-1-10v-12l3-19 5-15 8-16 8-11 9-10 18-13 16-10 15-11 20-12 21-9 42-13 24-7 28-7 32-4 47-4z"/>
<path transform="translate(419,431)" d="m0 0h8l10 4 11 7 7 7 10 14 8 16 5 16 6 32 6 39 4 40v55l-4 39-6 38-7 34-5 13-8 16-8 11-15 15-6 3-5 1h-10l-8-3-11-7-8-7-9-12-8-15-6-17-5-21-6-35-5-39-3-35v-22l3-35 7-50 7-34 5-17 8-18 7-11 9-10 11-8z" fill="#010101"/>
<path transform="translate(1650,431)" d="m0 0h10l9 4 11 7 7 7 10 14 8 16 6 20 8 47 5 40 2 24v45l-4 44-6 39-7 33-6 16-9 17-9 11-12 12-6 3-4 1h-11l-10-4-11-8-11-11-8-13-8-18-6-23-7-40-5-39-3-33v-26l3-33 8-55 7-33 6-18 8-16 4-6 9-10 10-9z" fill="#010101"/>
<path transform="translate(707,1210)" d="m0 0 1 2-3 7-13 16-8 10-10 12-12 16-8 12-2 1 2-5 11-16 10-13 14-19 9-12z" fill="#FEFEFE"/>
<path transform="translate(409,436)" d="m0 0h6l-3 3-14 9-4 4h-2l-2 4-9 15-6 11-1-2 7-16 7-11 9-10z" fill="#EDEDED"/>
<path transform="translate(1644,435)" d="m0 0h3v2l-15 9-10 9-8 14-6 12-2 1 3-9 8-16 12-13 5-5z" fill="#EAEAEA"/>
<path transform="translate(467,37)" d="m0 0 25 2 36 6 4 2h-15l-12-2-8-2-9-2h-6l-2-1-22-1v-1z" fill="#FEFEFE"/>
<path transform="translate(376,785)" d="m0 0 3 3 8 14 8 10 10 7 10 5 1 3h-6l-10-7-7-6-9-12-8-15z" fill="#FEFEFE"/>
<path transform="translate(463,799)" d="m0 0 1 2-8 11-15 15h-6l1-3 3-2 14-11 8-9z" fill="#D1D1D1"/>
<path transform="translate(1325,115)" d="m0 0 2 1-8 8-8 7-10 10-4 6-1-3 10-13 8-8z" fill="#FEFEFE"/>
<path transform="translate(434,435)" d="m0 0 5 1 11 8 9 10 7 11 3 5-1 2-8-12-2-5h-2l-6-7-12-9z" fill="#E8E8E8"/>
<path transform="translate(1695,799)" d="m0 0v3l-9 12-10 10-7 3h-2l2-4 8-6 10-8z" fill="#E5E5E5"/>
<path transform="translate(927 2e3)" d="m0 0 13 2 19 5 7 3-4 1-34-9z" fill="#FEFEFE"/>
<path transform="translate(73,119)" d="m0 0 2 1-26 26 2-5 11-13 8-7z" fill="#FEFEFE"/>
<path transform="translate(263,41)" d="m0 0 9 1v1l-20 3-16 1v-1l20-4z" fill="#FEFEFE"/>
<path transform="translate(1511,41)" d="m0 0h8l1 2-27 4h-9l4-2z" fill="#FEFEFE"/>
<path transform="translate(357,675)" d="m0 0h1l1 19 1 3 1 24h-1l-4-30z" fill="#FEFEFE"/>
<path transform="translate(687,1832)" d="m0 0 7 6 9 11 10 10 1 3-4-2-13-14-9-11z" fill="#FEFEFE"/>
<path transform="translate(1735,39)" d="m0 0 24 3 13 3v1h-8l-15-3-15-2z" fill="#FEFEFE"/>
<path transform="translate(875,1975)" d="m0 0 4 1 5 2 3 2 5 2v2l3-1v2h2l-1 2-23-9 2-1z" fill="#E6E6E6"/>
<path transform="translate(1620,455)" d="m0 0v3l-12 23-2 1 3-9 7-14z" fill="#FEFEFE"/>
<path transform="translate(1454,54)" d="m0 0 3 1-5 4-9 2-5-1 3-2z" fill="#FEFEFE"/>
<path transform="translate(1629,816)" d="m0 0 5 2 14 7v1l-9-1-9-7z" fill="#EFEFEF"/>
<path transform="translate(554,53)" d="m0 0 7 1 13 4 1 2-4 1-16-6z" fill="#FEFEFE"/>
<path transform="translate(890,1082)" d="m0 0 3 1-7 5-4 2h-6l-1-2z" fill="#FEFEFE"/>
<path transform="translate(1668,435)" d="m0 0 8 4 11 10-1 2-10-8-8-6z" fill="#FEFEFE"/>
<path transform="translate(206,54)" d="m0 0 3 1-5 4-8 2h-5v-2z" fill="#FEFEFE"/>
<path transform="translate(533,47)" d="m0 0 11 2 10 3v1h-8l-9-3-4-1z" fill="#F7F7F7"/>
<path transform="translate(821,1951)" d="m0 0 5 1 14 8 1 2-6-2-14-8z" fill="#FEFEFE"/>
<path transform="translate(883,1980)" d="m0 0 6 1 3 1v2l3-1v2h2l-1 2-13-5z" fill="#FEFEFE"/>
<path transform="translate(458,456)" d="m0 0 4 2 7 12-1 2-8-12z" fill="#FEFEFE"/>
</svg>
